<svg width="1000" height="470.588" viewBox="0 0 1000 470.588" fill="none" xmlns="http://www.w3.org/2000/svg"><path d="M708.468 203.3a11.5 11.5 0 0 1 11.48 11.472 11.5 11.5 0 0 1 -11.48 11.44h-21.532V203.3z" fill="#D35400"/><path fill-rule="evenodd" clip-rule="evenodd" d="M765.48 1.468C895 1.468 1000 106.1 1000 235.18s-105 233.7 -234.52 233.7a234.6 234.6 0 0 1 -221.34 -156.26q0.072 2.252 0.072 4.52c0 83.82 -68.188 151.8 -152.312 151.8h-46.94a152.2 152.2 0 0 1 -120.88 -59.428v52.212H2.908v-109.132h54.74V150.44L0 197.86V62.148L60.532 8.66H168.6v343.908h28.2a152 152 0 0 1 -4.088 -40.16h113.84v9.96a39.56 39.56 0 0 0 39.632 39.48h43.96a39.56 39.56 0 0 0 39.632 -39.48v-4.32a39.56 39.56 0 0 0 -39.632 -39.48h-63.232v-86.14h63.24a39.56 39.56 0 0 0 39.632 -39.48V148.64a39.56 39.56 0 0 0 -39.632 -39.48h-43.968a39.56 39.56 0 0 0 -39.632 39.48v10.028H192.64a152 152 0 0 1 -0.1 -5.34c0 -83.828 68.212 -151.776 152.332 -151.776h46.96c84.12 0 152.312 67.96 152.312 151.78q0 2.32 -0.088 4.628A234.6 234.6 0 0 1 765.5 1.468m-7.62 158.872v18.76a47.4 47.4 0 0 0 -37.82 -18.76h-86.16v150.32h53.152v-42.968h33.02a47.36 47.36 0 0 0 47.408 -47.24v-12.88a40 40 0 0 0 -0.2 -4.292h34.592v107.348h53.152V203.28h43.66V160.34zm113.772 99.268v51.032h48.312V259.6zm-339.32 -49.56A140 140 0 0 1 518.08 235.2q8.368 11.72 14.232 25.04a236 236 0 0 1 0 -50.188" fill="#D35400"/></svg>